<?xml version="1.0" encoding="utf-8"?>
<!-- Generator: Adobe Illustrator 25.2.0, SVG Export Plug-In . SVG Version: 6.00 Build 0)  -->
<svg version="1.1" id="Layer_1" xmlns="http://www.w3.org/2000/svg" xmlns:xlink="http://www.w3.org/1999/xlink" x="0px" y="0px"
	 viewBox="0 0 123.2 93.7" style="enable-background:new 0 0 123.2 93.7;" xml:space="preserve">
<style type="text/css">
	.st0{fill:#FBAF43;}
	.st1{fill:#6D6E71;}
</style>
<g>
	<polygon class="st0" points="61.6,18.7 104.9,18.7 83.2,56.2 61.6,93.7 39.9,56.2 18.3,18.7 	"/>
	<path class="st0" d="M111.2,70.6H12c-6.6,0-12-5.4-12-12V12C0,5.4,5.4,0,12,0h99.2c6.6,0,12,5.4,12,12v46.6
		C123.2,65.2,117.8,70.6,111.2,70.6z"/>
	<g>
		<path class="st1" d="M31.1,25.1c-0.3-0.4-0.8-0.7-1.5-0.7c-0.6,0-1.2,0.3-1.2,0.8c0,0.9,1.2,1,1.8,1.1c1.2,0.3,2.1,0.7,2.1,2.1
			c0,1.6-1.5,2.2-2.9,2.2c-1.2,0-2-0.3-2.7-1.3l1-0.8c0.4,0.4,0.9,0.8,1.7,0.8c0.7,0,1.4-0.3,1.4-0.9c0-0.8-1.1-1-1.7-1.1
			C28,27,27,26.7,27,25.3c0-1.5,1.4-2.2,2.7-2.2c0.9,0,1.9,0.3,2.4,1.2L31.1,25.1z"/>
		<path class="st1" d="M35,27.3c0,1.2,1.2,2.1,2.4,2.1c0.8,0,1.4-0.4,1.9-1.1l1,0.8c-0.8,1-1.8,1.5-3.2,1.5c-2.2,0-3.7-1.6-3.7-3.7
			c0-2.1,1.5-3.7,3.7-3.7c2.5,0,3.5,1.9,3.5,3.8v0.5H35z M39.3,26.3c0-1.2-0.7-2.1-2.1-2.1c-1.3,0-2.2,1.1-2.2,2.1H39.3z"/>
		<path class="st1" d="M43.3,27.3c0,1.2,1.2,2.1,2.4,2.1c0.8,0,1.4-0.4,2-1.1l1,0.8c-0.8,1-1.8,1.5-3.1,1.5c-2.2,0-3.7-1.6-3.7-3.7
			c0-2.1,1.5-3.7,3.7-3.7c2.5,0,3.5,1.9,3.5,3.8v0.5H43.3z M47.6,26.3c0-1.2-0.7-2.1-2.1-2.1c-1.3,0-2.2,1.1-2.2,2.1H47.6z"/>
		<path class="st1" d="M54.8,23.3h1.4v1.1h0c0.3-0.8,1.2-1.3,2.1-1.3c0.2,0,0.4,0,0.6,0.1l-0.1,1.5c-0.2-0.1-0.5-0.1-0.7-0.1
			c-1.3,0-2,0.7-2,2.3v3.6h-1.4V23.3z"/>
		<path class="st1" d="M61.1,27.3c0,1.2,1.2,2.1,2.4,2.1c0.8,0,1.4-0.4,2-1.1l1,0.8c-0.8,1-1.8,1.5-3.1,1.5c-2.2,0-3.7-1.6-3.7-3.7
			c0-2.1,1.5-3.7,3.7-3.7c2.5,0,3.5,1.9,3.5,3.8v0.5H61.1z M65.4,26.3c0-1.2-0.7-2.1-2.1-2.1c-1.3,0-2.2,1.1-2.2,2.1H65.4z"/>
		<path class="st1" d="M73.5,25.2c-0.5-0.5-1-0.8-1.8-0.8c-1.5,0-2.2,1.2-2.2,2.5s0.9,2.4,2.3,2.4c0.8,0,1.3-0.3,1.7-0.8l1,1
			c-0.7,0.8-1.7,1.1-2.7,1.1c-2.2,0-3.7-1.5-3.7-3.7c0-2.2,1.5-3.8,3.7-3.8c1,0,2,0.4,2.7,1.1L73.5,25.2z"/>
		<path class="st1" d="M76.7,27.3c0,1.2,1.2,2.1,2.4,2.1c0.8,0,1.4-0.4,1.9-1.1l1,0.8c-0.8,1-1.8,1.5-3.2,1.5
			c-2.2,0-3.7-1.6-3.7-3.7c0-2.1,1.5-3.7,3.7-3.7c2.5,0,3.5,1.9,3.5,3.8v0.5H76.7z M81,26.3c0-1.2-0.7-2.1-2.1-2.1
			c-1.3,0-2.2,1.1-2.2,2.1H81z"/>
		<path class="st1" d="M84,23.3h1.3v1.1h0c0.3-0.8,1.2-1.3,2.3-1.3c1.4,0,2.6,0.8,2.6,2.7v4.6H89v-4.2c0-1.3-0.8-1.8-1.6-1.8
			c-1.1,0-2,0.7-2,2.4v3.7H84V23.3z"/>
		<path class="st1" d="M96.2,24.5h-1.9v3.2c0,0.8,0,1.6,1,1.6c0.3,0,0.7,0,1-0.2v1.2c-0.3,0.2-0.9,0.2-1.2,0.2
			c-2.1,0-2.1-1.3-2.1-2.4v-3.7h-1.6v-1.2h1.6v-2h1.4v2h1.9V24.5z"/>
		<path class="st1" d="M29.4,41.3h1.3v1.1h0c0.1-0.4,1-1.3,2.3-1.3c1,0,1.8,0.5,2.2,1.3c0.5-0.9,1.4-1.3,2.2-1.3
			c2.2,0,2.7,1.6,2.7,3.2v4.1h-1.4v-4c0-1.1-0.2-2.1-1.5-2.1c-1.3,0-1.8,0.9-1.8,2.1v3.9h-1.3v-3.7c0-1.3-0.2-2.3-1.5-2.3
			c-1,0-1.8,0.7-1.8,2.3v3.7h-1.4V41.3z"/>
		<path class="st1" d="M43.2,45.3c0,1.2,1.2,2.1,2.4,2.1c0.8,0,1.4-0.4,1.9-1.1l1,0.8c-0.8,1-1.8,1.5-3.2,1.5
			c-2.2,0-3.7-1.6-3.7-3.7c0-2.1,1.5-3.7,3.7-3.7c2.5,0,3.5,1.9,3.5,3.8v0.5H43.2z M47.5,44.3c0-1.2-0.7-2.1-2.1-2.1
			c-1.3,0-2.2,1.1-2.2,2.1H47.5z"/>
		<path class="st1" d="M54.3,43.1c-0.3-0.4-0.8-0.7-1.5-0.7c-0.6,0-1.2,0.3-1.2,0.8c0,0.9,1.2,1,1.8,1.1c1.2,0.3,2.1,0.7,2.1,2.1
			c0,1.6-1.5,2.2-2.9,2.2c-1.2,0-2-0.3-2.7-1.3l1-0.8c0.4,0.4,0.9,0.8,1.7,0.8c0.7,0,1.4-0.3,1.4-0.9c0-0.8-1.1-1-1.7-1.1
			c-1.2-0.3-2.2-0.7-2.2-2c0-1.5,1.4-2.2,2.7-2.2c0.9,0,1.9,0.3,2.4,1.2L54.3,43.1z"/>
		<path class="st1" d="M61,43.1c-0.3-0.4-0.8-0.7-1.5-0.7c-0.6,0-1.2,0.3-1.2,0.8c0,0.9,1.2,1,1.8,1.1c1.2,0.3,2.1,0.7,2.1,2.1
			c0,1.6-1.5,2.2-2.9,2.2c-1.2,0-2-0.3-2.7-1.3l1-0.8c0.4,0.4,0.9,0.8,1.7,0.8c0.7,0,1.4-0.3,1.4-0.9c0-0.8-1.1-1-1.7-1.1
			c-1.2-0.3-2.2-0.7-2.2-2c0-1.5,1.4-2.2,2.7-2.2c0.9,0,1.9,0.3,2.4,1.2L61,43.1z"/>
		<path class="st1" d="M63.9,42.2c0.8-0.7,1.8-1.1,2.8-1.1c2.1,0,3,1.1,3,2.4v3.6c0,0.5,0,0.9,0.1,1.3h-1.2c0-0.4,0-0.7,0-1.1h0
			c-0.6,0.9-1.4,1.3-2.5,1.3c-1.3,0-2.5-0.8-2.5-2.1c0-1.8,1.8-2.5,3.9-2.5h1v-0.3c0-0.7-0.5-1.5-1.7-1.5c-1,0-1.5,0.4-2,0.8
			L63.9,42.2z M67.7,45c-1.3,0-2.8,0.2-2.8,1.4c0,0.8,0.6,1.2,1.5,1.2c1.5,0,2-1.1,2-2.1V45H67.7z"/>
		<path class="st1" d="M78.8,48.3c0,2.1-1.6,3.7-3.9,3.7c-1.3,0-2.5-0.3-3.5-1.3l0.9-1.1c0.7,0.8,1.5,1.2,2.5,1.2
			c2,0,2.6-1.3,2.6-2.5v-1h0c-0.5,0.9-1.5,1.3-2.5,1.3c-2.1,0-3.6-1.6-3.6-3.6c0-2.1,1.4-3.7,3.6-3.7c1,0,2,0.4,2.5,1.2h0v-1h1.3
			V48.3z M72.7,44.8c0,1.4,0.9,2.4,2.3,2.4c1.4,0,2.3-0.9,2.3-2.4c0-1.4-0.9-2.5-2.3-2.5C73.6,42.4,72.7,43.4,72.7,44.8z"/>
		<path class="st1" d="M81.8,45.3c0,1.2,1.2,2.1,2.4,2.1c0.8,0,1.4-0.4,1.9-1.1l1,0.8c-0.8,1-1.8,1.5-3.2,1.5
			c-2.2,0-3.7-1.6-3.7-3.7c0-2.1,1.5-3.7,3.7-3.7c2.5,0,3.5,1.9,3.5,3.8v0.5H81.8z M86.1,44.3c0-1.2-0.7-2.1-2.1-2.1
			c-1.3,0-2.2,1.1-2.2,2.1H86.1z"/>
		<path class="st1" d="M92.9,43.1c-0.3-0.4-0.8-0.7-1.5-0.7c-0.6,0-1.2,0.3-1.2,0.8c0,0.9,1.2,1,1.8,1.1c1.2,0.3,2.1,0.7,2.1,2.1
			c0,1.6-1.5,2.2-2.9,2.2c-1.2,0-2-0.3-2.7-1.3l1-0.8c0.4,0.4,0.9,0.8,1.7,0.8c0.7,0,1.4-0.3,1.4-0.9c0-0.8-1.1-1-1.7-1.1
			c-1.2-0.3-2.2-0.7-2.2-2c0-1.5,1.4-2.2,2.7-2.2c0.9,0,1.9,0.3,2.4,1.2L92.9,43.1z"/>
	</g>
</g>
</svg>
